<?xml version="1.0" standalone="no"?>
<!DOCTYPE svg PUBLIC "-//W3C//DTD SVG 20010904//EN"
 "http://www.w3.org/TR/2001/REC-SVG-20010904/DTD/svg10.dtd">
<svg version="1.0" xmlns="http://www.w3.org/2000/svg"
 width="300.000000pt" height="266.000000pt" viewBox="0 0 300.000000 266.000000"
 preserveAspectRatio="xMidYMid meet">
<g transform="translate(0.000000,266.000000) scale(0.100000,-0.100000)"
fill="#616161" stroke="none">
<path d="M1327 2325 c-298 -60 -562 -278 -680 -565 -47 -113 -59 -178 -64
-328 -5 -122 -2 -156 16 -235 65 -282 247 -510 511 -643 122 -61 247 -89 405
-89 128 0 181 8 295 45 241 77 454 270 562 508 54 119 78 237 78 386 0 145
-16 229 -70 362 -115 287 -391 508 -704 563 -81 15 -266 12 -349 -4z m327 -75
c28 -10 35 -30 11 -30 -26 0 -148 -66 -193 -105 -30 -26 -41 -42 -37 -55 8
-25 -88 -117 -137 -130 -50 -14 -120 -96 -148 -171 -23 -65 -36 -73 -47 -31
-20 71 -10 128 39 221 25 49 44 98 42 108 -4 13 15 36 64 80 60 53 72 60 82
48 11 -13 17 -12 44 8 45 34 76 50 116 58 53 10 136 10 164 -1z m-149 -292
c31 -37 98 -114 227 -260 l86 -99 -50 -47 -50 -47 -36 41 c-123 136 -312 355
-312 361 0 11 83 82 97 83 6 0 23 -15 38 -32z m-206 -169 c58 -20 77 -103 33
-142 -59 -52 -142 -13 -142 66 0 29 26 66 54 77 11 5 21 9 22 9 1 1 15 -4 33
-10z m-105 -214 c27 -14 60 -25 73 -25 28 0 28 -1 3 -50 -37 -73 -107 -127
-250 -190 -119 -53 -170 -101 -170 -159 0 -29 54 -86 104 -110 72 -35 131 -27
188 26 l27 25 70 -27 c39 -16 71 -31 71 -35 0 -4 -16 -28 -36 -53 -41 -52
-122 -97 -191 -105 -137 -15 -344 106 -378 221 -41 140 10 222 200 320 71 37
119 70 170 119 38 37 70 67 70 68 0 0 22 -11 49 -25z m732 -59 c21 -18 28 -32
28 -61 0 -29 -7 -43 -28 -61 -44 -38 -96 -25 -123 30 -39 82 54 152 123 92z
m214 -76 c189 -99 231 -367 83 -531 -21 -23 -52 -48 -70 -56 -77 -32 -180 -2
-277 81 -113 96 -244 163 -294 149 -19 -4 -21 1 -24 69 -2 40 -2 76 0 81 2 4
31 7 65 7 95 -1 156 -34 292 -161 94 -88 193 -90 234 -6 24 49 25 70 10 131
-14 57 -46 94 -94 110 l-40 14 -5 72 c-3 39 -4 73 -2 75 5 5 96 -21 122 -35z
m-689 -239 c39 -40 39 -82 -1 -122 -32 -32 -50 -33 -97 -3 -31 19 -44 71 -27
106 28 55 81 63 125 19z"/>
</g>
</svg>
