<!DOCTYPE svg PUBLIC "-//W3C//DTD SVG 20010904//EN"
 "http://www.w3.org/TR/2001/REC-SVG-20010904/DTD/svg10.dtd">
<svg version="1.0" xmlns="http://www.w3.org/2000/svg"
 width="300.000000pt" height="295.000000pt" viewBox="0 0 300.000000 295.000000"
 preserveAspectRatio="xMidYMid meet">
<g transform="translate(0.000000,295.000000) scale(0.100000,-0.100000)"
fill="#616161" stroke="none">
<path   class="jp-icon3 jp-icon-selectable"
        d="M1450 2754 c-40 -17 -1181 -1150 -1206 -1198 -20 -36 -20 -106 -1
-142 9 -16 278 -291 599 -611 506 -505 589 -583 625 -594 92 -27 70 -45 706
589 320 319 587 594 598 614 24 47 24 99 0 146 -29 55 -1157 1177 -1203 1197
-46 19 -73 19 -118 -1z m204 -284 c28 -10 35 -30 12 -30 -27 0 -172 -80 -218
-120 -39 -34 -46 -45 -38 -60 8 -15 -2 -29 -60 -83 -53 -50 -74 -64 -90 -60
-34 9 -119 -86 -155 -172 -16 -39 -32 -74 -36 -79 -16 -18 -31 50 -27 125 3
69 7 82 51 157 33 58 46 89 42 105 -5 19 7 35 70 91 71 64 77 67 94 52 16 -15
19 -15 35 2 27 30 107 69 155 76 24 3 47 8 49 11 8 7 84 -3 116 -15z m-52
-453 c77 -88 154 -176 171 -194 63 -69 63 -66 4 -117 -44 -38 -55 -43 -69 -33
-10 7 -66 69 -125 138 -60 69 -140 162 -180 206 l-72 80 56 46 c30 26 59 44
64 41 5 -3 73 -78 151 -167z m-314 -72 c37 -31 46 -65 28 -108 -26 -63 -103
-73 -152 -20 -37 40 -29 96 20 135 30 25 70 22 104 -7z m-80 -238 c43 -5 46
-10 27 -49 -47 -92 -128 -154 -290 -224 -116 -50 -175 -105 -175 -162 0 -34 6
-45 46 -81 56 -53 99 -71 164 -71 45 0 55 4 94 40 l43 40 77 -32 c42 -18 76
-37 76 -43 0 -6 -20 -33 -44 -61 -124 -141 -326 -139 -523 5 -90 65 -135 204
-95 294 28 64 102 129 201 177 104 51 169 97 236 167 l49 51 41 -24 c23 -13
56 -25 73 -27z m737 -33 c32 -21 49 -73 36 -108 -14 -35 -69 -68 -101 -61 -39
9 -70 50 -70 94 0 74 74 115 135 75z m182 -69 c71 -21 164 -92 197 -150 31
-56 56 -147 56 -201 0 -124 -84 -274 -175 -315 -90 -41 -188 -12 -325 99 -129
104 -218 151 -292 152 l-36 0 -4 78 c-2 42 -2 80 0 85 2 4 32 7 67 7 110 0
173 -35 336 -186 60 -56 113 -74 178 -59 67 15 109 125 81 211 -24 72 -78 124
-128 124 -16 0 -20 10 -26 61 -12 121 -14 119 71 94z m-696 -284 c58 -58 22
-161 -57 -161 -31 0 -72 30 -83 61 -17 48 -14 64 18 98 39 41 82 42 122 2z"/>
</g>
</svg>
